<svg width="160" height="160" viewBox="0 0 160 160" fill="none" xmlns="http://www.w3.org/2000/svg">
<path d="M140.441 80C140.443 113.379 113.383 140.44 80 140.441C46.6208 140.443 19.5598 113.383 19.5586 80C19.5594 46.6208 46.6168 19.5578 80 19.5586C113.379 19.5575 140.442 46.6168 140.441 80Z" fill="#2394E0"/>
<path d="M26.149 75.8536C24.8549 75.2648 22.3879 74.0219 19.9644 72.9671C22.0741 54.7597 32.2745 39.0193 46.8777 29.434C47.0657 29.4946 47.2537 29.5505 47.4448 29.5987C49.8263 30.2123 52.4083 30.3118 54.5149 31.5795C58.1098 33.7326 58.9922 39.3098 56.244 42.4697C54.198 44.8218 50.6078 45.9108 49.5933 48.8578C48.7109 51.4227 50.2209 54.1134 51.3597 56.5696C52.4984 59.0319 53.1291 62.3627 51.0614 64.1135C49.0589 65.8084 45.9829 64.7815 43.766 63.3802C42.9395 62.8567 41.9328 62.2695 41.0473 62.6858C40.2597 63.0525 39.9909 64.07 40.1168 64.9307C40.2426 65.7898 40.6605 66.5774 40.8733 67.421C41.6812 70.6694 39.1645 74.0064 36.0652 75.2725C32.9643 76.5356 29.197 77.2409 26.149 75.8536Z" fill="#A1E367"/>
<path d="M63.2331 101.33C63.3465 104.073 60.85 106.181 58.1453 105.708C56.264 105.374 54.3702 105.304 52.5635 105.872C49.5247 106.834 47.0997 110.407 48.5429 113.248C49.3585 114.855 51.1078 115.753 52.2325 117.159C53.3107 118.506 53.755 120.238 54.1729 121.911C55.54 127.4 51.2585 127.451 58.849 136.635C38.3253 128.97 23.0867 110.464 20.0962 88.0827C26.7344 85.3734 26.2963 90.1862 33.7642 87.4706C36.8464 86.349 38.0395 88.8207 40.4273 88.0827C41.7757 87.6695 42.7995 86.0694 44.1682 86.3987C45.4452 86.7016 45.8802 88.2459 46.6507 89.3085C48.6486 92.0722 52.8291 91.4958 56.1195 92.4C58.9733 93.183 61.4124 95.3439 62.534 98.0813C62.955 99.1113 63.1896 100.217 63.2331 101.33Z" fill="#A1E367"/>
<path d="M133.047 51.0095C132.757 51.154 132.392 51.3233 132.17 51.4072C129.748 52.3144 126.919 52.7463 125.315 54.7706C123.863 56.6069 123.903 59.1593 123.737 61.4943C123.161 69.5882 120.308 77.0234 116.393 84.1665C117.068 84.1494 117.765 84.1448 118.489 84.1789C119.289 84.2193 119.687 85.1685 119.156 85.7698C108.766 97.5207 109.912 111.953 101.674 122.817C100.153 124.824 97.7495 126.847 95.3944 125.961C92.9678 125.051 92.5669 121.846 92.5638 119.255C92.5592 114.283 92.5514 109.314 92.5468 104.345C92.5436 101.911 92.4349 99.2031 90.7167 97.4772C89.4754 96.2266 87.6345 95.7823 85.8821 95.6393C83.0516 95.4125 80.2055 95.8273 77.3734 95.6689C74.5382 95.512 71.5461 94.656 69.7596 92.4515C67.5566 89.7359 67.7803 85.8179 68.481 82.3924C69.2515 78.6111 70.5829 74.7304 73.4709 72.1701C76.1088 69.8305 79.755 68.8891 83.2784 68.8813C85.618 68.8751 94.0335 68.945 95.9785 69.0056C99.185 69.1019 102.531 70.4178 104.263 73.1178C106.087 75.9608 105.893 79.8757 108.143 82.3955C109.35 83.7471 110.799 84.1199 112.466 84.1976C113.835 80.4644 115.005 76.4361 113.676 72.7387C113.203 71.4105 112.409 70.1599 112.322 68.7539C112.145 65.897 114.905 63.3911 114.484 60.5606C114.066 57.7534 110.844 56.3754 108.045 55.9031C105.527 55.4759 102.91 55.3609 100.437 56.0087C99.4677 56.2651 98.5185 56.6488 97.647 57.1537C95.8076 58.2225 93.4789 57.9289 92.0139 56.3847C89.7659 54.0156 86.4321 52.6407 83.1743 53.0135C81.4949 53.2093 79.8746 53.8089 78.189 53.9425C76.5019 54.0762 74.6019 53.6116 73.6884 52.1902C73.0655 51.2161 73.0189 49.995 72.9924 48.8392C72.935 46.4468 72.9381 43.8555 74.3627 41.9384C76.4646 39.1048 80.5504 38.9991 84.0536 38.6076C88.0726 38.1587 92.1786 36.891 95.0417 34.034C97.4357 31.6447 98.5154 26.2338 95.8092 21.6462C111.845 25.9805 125.238 36.7481 133.047 51.0095Z" fill="#A1E367"/>
</svg>
