<svg width="160" height="160" viewBox="0 0 160 160" fill="none" xmlns="http://www.w3.org/2000/svg">
<path d="M144.387 119.052C144.387 122.363 141.701 125.046 138.392 125.046H21.608C18.298 125.046 15.614 122.362 15.614 119.052V40.9449C15.614 37.6379 18.299 34.955 21.608 34.955H138.392C141.702 34.955 144.387 37.6389 144.387 40.9449V119.052Z" fill="#E6E7E8"/>
<path d="M15.614 119.052C15.614 122.363 18.299 125.046 21.608 125.046H138.392C141.702 125.046 144.387 122.362 144.387 119.052V118.073H15.614V119.052Z" fill="#DA2128"/>
<path d="M144.387 104.198H15.614V111.167H144.387V104.198Z" fill="#DA2128"/>
<path d="M144.387 90.323H15.614V97.28H144.387V90.323Z" fill="#DA2128"/>
<path d="M144.387 76.446H15.614V83.415H144.387V76.446Z" fill="#DA2128"/>
<path d="M144.387 62.569H15.614V69.5399H144.387V62.569Z" fill="#DA2128"/>
<path d="M144.387 48.694H15.614V55.663H144.387V48.694Z" fill="#DA2128"/>
<path d="M144.387 40.944C144.387 37.637 141.701 34.954 138.392 34.954H21.608C18.298 34.954 15.614 37.638 15.614 40.944V41.926H144.387V40.944Z" fill="#DA2128"/>
<path d="M82.8951 34.954H21.5951C18.2921 34.958 15.613 37.64 15.613 40.944V83.44H82.894V34.954H82.8951Z" fill="#006BB5"/>
<path d="M20.1422 36.0439L20.8002 38.02H22.8182L21.1882 39.245L21.7962 41.249L20.1422 40.0219L18.5092 41.249L19.1462 39.245L17.4912 38.02H19.5092L20.1422 36.0439Z" fill="#EDEDEE"/>
<path d="M31.2171 36.0439L31.8511 38.02H33.8931L32.2641 39.245L32.8981 41.249L31.2171 40.0219L29.6101 41.249L30.2441 39.245L28.5891 38.02H30.6091L31.2171 36.0439Z" fill="#EDEDEE"/>
<path d="M42.8303 36.0439L43.4413 38.02H45.4583L43.8253 39.245L44.4593 41.249L42.8303 40.0219L41.1743 41.249L41.7833 39.245L40.1543 38.02H42.1963L42.8303 36.0439Z" fill="#EDEDEE"/>
<path d="M54.3903 36.0439L55.0272 38.02H57.0443L55.3892 39.245L56.0233 41.249L54.3903 40.0219L52.7363 41.249L53.3433 39.245L51.7393 38.02H53.7603L54.3903 36.0439Z" fill="#EDEDEE"/>
<path d="M65.9541 36.0439L66.5621 38.02H68.6331L66.9751 39.245L67.5861 41.249L65.9541 40.0219L64.2981 41.249L64.9321 39.245L63.2751 38.02H65.3201L65.9541 36.0439Z" fill="#EDEDEE"/>
<path d="M25.4722 41.485L26.0842 43.477H28.1262L26.4713 44.702L27.1052 46.704L25.4722 45.477L23.8182 46.704L24.4523 44.702L22.7712 43.477H24.8412L25.4722 41.485Z" fill="#EDEDEE"/>
<path d="M36.5471 41.485L37.1841 43.477H39.2051L37.5721 44.702L38.2021 46.704L36.5471 45.477L34.8921 46.704L35.5261 44.702L33.8721 43.477H35.9171L36.5471 41.485Z" fill="#EDEDEE"/>
<path d="M48.1121 41.485L48.7451 43.477H50.7881L49.1321 44.702L49.7661 46.704L48.1121 45.477L46.454 46.704L47.113 44.702L45.4351 43.477H47.4781L48.1121 41.485Z" fill="#EDEDEE"/>
<path d="M59.6722 41.485L60.3063 43.477H62.3513L60.6973 44.702L61.3282 46.704L59.6722 45.477L58.0433 46.704L58.6763 44.702L57.0222 43.477H59.0422L59.6722 41.485Z" fill="#EDEDEE"/>
<path d="M71.2592 41.485L71.8672 43.477H73.9133L72.2833 44.702L72.8912 46.704L71.2592 45.477L69.6042 46.704L70.2372 44.702L68.6042 43.477H70.6252L71.2592 41.485Z" fill="#EDEDEE"/>
<path d="M25.4722 51.4089L26.0842 53.3859H28.1262L26.4713 54.6239L27.1052 56.6119L25.4722 55.3899L23.8182 56.6119L24.4523 54.6239L22.7712 53.3859H24.8412L25.4722 51.4089Z" fill="#EDEDEE"/>
<path d="M36.5471 51.4089L37.1841 53.3859H39.2051L37.5721 54.6239L38.2021 56.6119L36.5471 55.3899L34.8921 56.6119L35.5261 54.6239L33.8721 53.3859H35.9171L36.5471 51.4089Z" fill="#EDEDEE"/>
<path d="M48.1121 51.4089L48.7451 53.3859H50.7881L49.1321 54.6239L49.7661 56.6119L48.1121 55.3899L46.454 56.6119L47.113 54.6239L45.4351 53.3859H47.4781L48.1121 51.4089Z" fill="#EDEDEE"/>
<path d="M59.6722 51.4089L60.3063 53.3859H62.3513L60.6973 54.6239L61.3282 56.6119L59.6722 55.3899L58.0433 56.6119L58.6763 54.6239L57.0222 53.3859H59.0422L59.6722 51.4089Z" fill="#EDEDEE"/>
<path d="M71.2592 51.4089L71.8672 53.3859H73.9133L72.2833 54.6239L72.8912 56.6119L71.2592 55.3899L69.6042 56.6119L70.2372 54.6239L68.6042 53.3859H70.6252L71.2592 51.4089Z" fill="#EDEDEE"/>
<path d="M25.4722 61.317L26.0842 63.308H28.1262L26.4713 64.546L27.1052 66.511L25.4722 65.2719L23.8182 66.511L24.4523 64.546L22.7712 63.308H24.8412L25.4722 61.317Z" fill="#EDEDEE"/>
<path d="M36.5471 61.317L37.1841 63.308H39.2051L37.5721 64.546L38.2021 66.511L36.5471 65.2719L34.8921 66.511L35.5261 64.546L33.8721 63.308H35.9171L36.5471 61.317Z" fill="#EDEDEE"/>
<path d="M48.1121 61.317L48.7451 63.308H50.7881L49.1321 64.546L49.7661 66.511L48.1121 65.2719L46.454 66.511L47.113 64.546L45.4351 63.308H47.4781L48.1121 61.317Z" fill="#EDEDEE"/>
<path d="M59.6722 61.317L60.3063 63.308H62.3513L60.6973 64.546L61.3282 66.511L59.6722 65.2719L58.0433 66.511L58.6763 64.546L57.0222 63.308H59.0422L59.6722 61.317Z" fill="#EDEDEE"/>
<path d="M71.2592 61.317L71.8672 63.308H73.9133L72.2833 64.546L72.8912 66.511L71.2592 65.2719L69.6042 66.511L70.2372 64.546L68.6042 63.308H70.6252L71.2592 61.317Z" fill="#EDEDEE"/>
<path d="M25.4722 71.2269L26.0842 73.2019H28.1262L26.4713 74.4439L27.1052 76.4329L25.4722 75.2079L23.8182 76.4329L24.4523 74.4439L22.7712 73.2019H24.8412L25.4722 71.2269Z" fill="#EDEDEE"/>
<path d="M36.5471 71.2269L37.1841 73.2019H39.2051L37.5721 74.4439L38.2021 76.4329L36.5471 75.2079L34.8921 76.4329L35.5261 74.4439L33.8721 73.2019H35.9171L36.5471 71.2269Z" fill="#EDEDEE"/>
<path d="M48.1121 71.2269L48.7451 73.2019H50.7881L49.1321 74.4439L49.7661 76.4329L48.1121 75.2079L46.454 76.4329L47.113 74.4439L45.4351 73.2019H47.4781L48.1121 71.2269Z" fill="#EDEDEE"/>
<path d="M59.6722 71.2269L60.3063 73.2019H62.3513L60.6973 74.4439L61.3282 76.4329L59.6722 75.2079L58.0433 76.4329L58.6763 74.4439L57.0222 73.2019H59.0422L59.6722 71.2269Z" fill="#EDEDEE"/>
<path d="M71.2592 71.2269L71.8672 73.2019H73.9133L72.2833 74.4439L72.8912 76.4329L71.2592 75.2079L69.6042 76.4329L70.2372 74.4439L68.6042 73.2019H70.6252L71.2592 71.2269Z" fill="#EDEDEE"/>
<path d="M77.5153 36.0439L78.1483 38.02H80.1683L78.5363 39.245L79.1722 41.249L77.5153 40.0219L75.8602 41.249L76.4943 39.245L74.8643 38.02H76.8812L77.5153 36.0439Z" fill="#EDEDEE"/>
<path d="M20.1422 45.952L20.8002 47.956H22.8182L21.1882 49.1689L21.7962 51.159L20.1422 49.933L18.5092 51.159L19.1462 49.1689L17.4912 47.956H19.5092L20.1422 45.952Z" fill="#EDEDEE"/>
<path d="M31.2171 45.952L31.8511 47.956H33.8931L32.2641 49.1689L32.8981 51.159L31.2171 49.933L29.6101 51.159L30.2441 49.1689L28.5891 47.956H30.6091L31.2171 45.952Z" fill="#EDEDEE"/>
<path d="M42.8303 45.952L43.4413 47.956H45.4583L43.8253 49.1689L44.4593 51.159L42.8303 49.933L41.1743 51.159L41.7833 49.1689L40.1543 47.956H42.1963L42.8303 45.952Z" fill="#EDEDEE"/>
<path d="M54.3903 45.952L55.0272 47.956H57.0443L55.3892 49.1689L56.0233 51.159L54.3903 49.933L52.7363 51.159L53.3433 49.1689L51.7393 47.956H53.7603L54.3903 45.952Z" fill="#EDEDEE"/>
<path d="M65.9541 45.952L66.5621 47.956H68.6331L66.9751 49.1689L67.5861 51.159L65.9541 49.933L64.2981 51.159L64.9321 49.1689L63.2751 47.956H65.3201L65.9541 45.952Z" fill="#EDEDEE"/>
<path d="M77.5153 45.952L78.1483 47.956H80.1683L78.5363 49.1689L79.1722 51.159L77.5153 49.933L75.8602 51.159L76.4943 49.1689L74.8643 47.956H76.8812L77.5153 45.952Z" fill="#EDEDEE"/>
<path d="M20.1422 55.86L20.8002 57.841H22.8182L21.1882 59.081L21.7962 61.067L20.1422 59.829L18.5092 61.067L19.1462 59.081L17.4912 57.841H19.5092L20.1422 55.86Z" fill="#EDEDEE"/>
<path d="M31.2171 55.86L31.8511 57.841H33.8931L32.2641 59.081L32.8981 61.067L31.2171 59.829L29.6101 61.067L30.2441 59.081L28.5891 57.841H30.6091L31.2171 55.86Z" fill="#EDEDEE"/>
<path d="M42.8303 55.86L43.4413 57.841H45.4583L43.8253 59.081L44.4593 61.067L42.8303 59.829L41.1743 61.067L41.7833 59.081L40.1543 57.841H42.1963L42.8303 55.86Z" fill="#EDEDEE"/>
<path d="M54.3903 55.86L55.0272 57.841H57.0443L55.3892 59.081L56.0233 61.067L54.3903 59.829L52.7363 61.067L53.3433 59.081L51.7393 57.841H53.7603L54.3903 55.86Z" fill="#EDEDEE"/>
<path d="M65.9541 55.86L66.5621 57.841H68.6331L66.9751 59.081L67.5861 61.067L65.9541 59.829L64.2981 61.067L64.9321 59.081L63.2751 57.841H65.3201L65.9541 55.86Z" fill="#EDEDEE"/>
<path d="M77.5153 55.86L78.1483 57.841H80.1683L78.5363 59.081L79.1722 61.067L77.5153 59.829L75.8602 61.067L76.4943 59.081L74.8643 57.841H76.8812L77.5153 55.86Z" fill="#EDEDEE"/>
<path d="M20.1422 65.7839L20.8002 67.7759H22.8182L21.1882 68.9869L21.7962 70.9759L20.1422 69.7529L18.5092 70.9759L19.1462 68.9869L17.4912 67.7759H19.5092L20.1422 65.7839Z" fill="#EDEDEE"/>
<path d="M31.2171 65.7839L31.8511 67.7759H33.8931L32.2641 68.9869L32.8981 70.9759L31.2171 69.7529L29.6101 70.9759L30.2441 68.9869L28.5891 67.7759H30.6091L31.2171 65.7839Z" fill="#EDEDEE"/>
<path d="M42.8303 65.7839L43.4413 67.7759H45.4583L43.8253 68.9869L44.4593 70.9759L42.8303 69.7529L41.1743 70.9759L41.7833 68.9869L40.1543 67.7759H42.1963L42.8303 65.7839Z" fill="#EDEDEE"/>
<path d="M54.3903 65.7839L55.0272 67.7759H57.0443L55.3892 68.9869L56.0233 70.9759L54.3903 69.7529L52.7363 70.9759L53.3433 68.9869L51.7393 67.7759H53.7603L54.3903 65.7839Z" fill="#EDEDEE"/>
<path d="M65.9541 65.7839L66.5621 67.7759H68.6331L66.9751 68.9869L67.5861 70.9759L65.9541 69.7529L64.2981 70.9759L64.9321 68.9869L63.2751 67.7759H65.3201L65.9541 65.7839Z" fill="#EDEDEE"/>
<path d="M77.5153 65.7839L78.1483 67.7759H80.1683L78.5363 68.9869L79.1722 70.9759L77.5153 69.7529L75.8602 70.9759L76.4943 68.9869L74.8643 67.7759H76.8812L77.5153 65.7839Z" fill="#EDEDEE"/>
<path d="M20.1422 75.6709L20.8002 77.6829H22.8182L21.1882 78.8989L21.7962 80.8879L20.1422 79.6589L18.5092 80.8879L19.1462 78.8989L17.4912 77.6829H19.5092L20.1422 75.6709Z" fill="#EDEDEE"/>
<path d="M31.2171 75.6709L31.8511 77.6829H33.8931L32.2641 78.8989L32.8981 80.8879L31.2171 79.6589L29.6101 80.8879L30.2441 78.8989L28.5891 77.6829H30.6091L31.2171 75.6709Z" fill="#EDEDEE"/>
<path d="M42.8303 75.6709L43.4413 77.6829H45.4583L43.8253 78.8989L44.4593 80.8879L42.8303 79.6589L41.1743 80.8879L41.7833 78.8989L40.1543 77.6829H42.1963L42.8303 75.6709Z" fill="#EDEDEE"/>
<path d="M54.3903 75.6709L55.0272 77.6829H57.0443L55.3892 78.8989L56.0233 80.8879L54.3903 79.6589L52.7363 80.8879L53.3433 78.8989L51.7393 77.6829H53.7603L54.3903 75.6709Z" fill="#EDEDEE"/>
<path d="M65.9541 75.6709L66.5621 77.6829H68.6331L66.9751 78.8989L67.5861 80.8879L65.9541 79.6589L64.2981 80.8879L64.9321 78.8989L63.2751 77.6829H65.3201L65.9541 75.6709Z" fill="#EDEDEE"/>
<path d="M77.5153 75.6709L78.1483 77.6829H80.1683L78.5363 78.8989L79.1722 80.8879L77.5153 79.6589L75.8602 80.8879L76.4943 78.8989L74.8643 77.6829H76.8812L77.5153 75.6709Z" fill="#EDEDEE"/>
</svg>
