<svg width="160" height="160" viewBox="0 0 160 160" fill="none" xmlns="http://www.w3.org/2000/svg">
<path d="M15.7529 41.0305V65.0185H144.247V41.0305C144.247 37.7315 141.57 35.0525 138.268 35.0525H21.7329C18.4309 35.0515 15.7529 37.7315 15.7529 41.0305Z" fill="#FF671F"/>
<path d="M144.247 65.0185H15.7529V94.9875H144.247V65.0185Z" fill="white"/>
<path d="M15.7529 118.967C15.7529 122.27 18.4309 124.947 21.7329 124.947H138.267C141.57 124.947 144.246 122.269 144.246 118.967V94.9875H15.7529V118.967Z" fill="#046A38"/>
<path d="M81.8661 80.1415C81.8661 81.3075 80.9211 82.2524 79.7551 82.2524C78.5891 82.2524 77.6431 81.3075 77.6431 80.1415C77.6431 78.9775 78.5891 78.0325 79.7551 78.0325C80.9201 78.0325 81.8661 78.9775 81.8661 80.1415Z" fill="#06038D"/>
<path d="M79.7549 67.3365C72.6829 67.3365 66.95 73.0685 66.95 80.1415C66.95 87.2135 72.6819 92.9485 79.7549 92.9485C86.8269 92.9485 92.5599 87.2145 92.5599 80.1415C92.5599 73.0695 86.8269 67.3365 79.7549 67.3365ZM79.7549 92.0495C73.1799 92.0495 67.848 86.7175 67.848 80.1415C67.848 73.5675 73.1799 68.2355 79.7549 68.2355C86.3309 68.2355 91.6609 73.5675 91.6609 80.1415C91.6609 86.7175 86.3309 92.0495 79.7549 92.0495Z" fill="#06038D"/>
<path d="M79.7548 78.0325L79.1948 73.1685L79.7548 68.2355L80.3268 73.1685L79.7548 78.0325Z" fill="#06038D"/>
<path d="M79.7548 92.0495L79.1948 87.1865L79.7548 82.2524L80.3268 87.1865L79.7548 92.0495Z" fill="#06038D"/>
<path d="M81.8721 80.1375L86.7341 79.5775L91.6681 80.1375L86.7341 80.7075L81.8721 80.1375Z" fill="#06038D"/>
<path d="M67.855 80.1375L72.716 79.5775L77.649 80.1375L72.716 80.7075L67.855 80.1375Z" fill="#06038D"/>
<path d="M80.812 78.3094L82.757 73.8215L85.709 69.8295L83.736 74.3855L80.812 78.3094Z" fill="#06038D"/>
<path d="M73.803 90.4525L75.748 85.9595L78.7 81.9675L76.729 86.5245L73.803 90.4525Z" fill="#06038D"/>
<path d="M81.5908 81.1924L86.0828 83.1395L90.0748 86.0905L85.5168 84.1185L81.5908 81.1924Z" fill="#06038D"/>
<path d="M69.4519 74.1844L73.9429 76.1295L77.9349 79.0815L73.3769 77.1085L69.4519 74.1844Z" fill="#06038D"/>
<path d="M81.585 79.0815L85.516 76.1625L90.068 74.1825L86.0819 77.1415L81.585 79.0815Z" fill="#06038D"/>
<path d="M69.447 86.0885L73.376 83.1725L77.929 81.1905L73.942 84.1515L69.447 86.0885Z" fill="#06038D"/>
<path d="M80.8188 81.9635L83.7359 85.8975L85.7179 90.4505L82.7559 86.4615L80.8188 81.9635Z" fill="#06038D"/>
<path d="M73.812 69.8275L76.727 73.7565L78.709 78.3094L75.748 74.3215L73.812 69.8275Z" fill="#06038D"/>
<path d="M79.2089 78.1045L77.4099 73.5515L76.6729 68.6415L78.5009 73.2605L79.2089 78.1045Z" fill="#06038D"/>
<path d="M82.836 91.6435L81.038 87.0925L80.301 82.1825L82.129 86.7995L82.836 91.6435Z" fill="#06038D"/>
<path d="M81.7979 79.5905L86.3488 77.7895L91.2599 77.0555L86.6429 78.8835L81.7979 79.5905Z" fill="#06038D"/>
<path d="M68.259 83.2175L72.81 81.4185L77.72 80.6844L73.103 82.5105L68.259 83.2175Z" fill="#06038D"/>
<path d="M80.301 78.1025L81.019 73.2605L82.836 68.6415L82.112 73.5515L80.301 78.1025Z" fill="#06038D"/>
<path d="M76.6729 91.6415L77.3918 86.7995L79.2089 82.1805L78.4828 87.0925L76.6729 91.6415Z" fill="#06038D"/>
<path d="M81.801 80.6844L86.643 81.4015L91.263 83.2175L86.351 82.4935L81.801 80.6844Z" fill="#06038D"/>
<path d="M68.261 77.0555L73.103 77.7725L77.723 79.5905L72.81 78.8645L68.261 77.0555Z" fill="#06038D"/>
<path d="M81.248 78.6435L84.29 74.8115L88.174 71.7175L85.091 75.6085L81.248 78.6435Z" fill="#06038D"/>
<path d="M71.3359 88.5575L74.378 84.7215L78.262 81.6295L75.1779 85.5204L71.3359 88.5575Z" fill="#06038D"/>
<path d="M81.2559 81.6295L85.0909 84.6705L88.1819 88.5575L84.2899 85.4715L81.2559 81.6295Z" fill="#06038D"/>
<path d="M71.344 71.7175L75.178 74.7605L78.27 78.6435L74.378 75.5575L71.344 71.7175Z" fill="#06038D"/>
<path d="M78.8419 68.2524C78.8879 68.6064 78.6399 68.9325 78.2859 68.9795C77.9319 69.0245 77.6079 68.7765 77.5599 68.4225C77.5139 68.0685 77.7629 67.7425 78.1169 67.6955C78.4709 67.6515 78.7949 67.8994 78.8419 68.2524Z" fill="#06038D"/>
<path d="M81.9508 91.8625C81.9968 92.2165 81.7478 92.5405 81.3928 92.5895C81.0398 92.6345 80.7148 92.3845 80.6678 92.0325C80.6218 91.6775 80.8708 91.3525 81.2248 91.3055C81.5788 91.2585 81.9028 91.5085 81.9508 91.8625Z" fill="#06038D"/>
<path d="M91.645 79.2295C91.291 79.2765 90.966 79.0245 90.919 78.6725C90.872 78.3185 91.122 77.9925 91.475 77.9455C91.829 77.8985 92.154 78.1485 92.201 78.5045C92.248 78.8585 91.998 79.1825 91.645 79.2295Z" fill="#06038D"/>
<path d="M68.0349 82.3365C67.6809 82.3835 67.3559 82.1355 67.3099 81.7795C67.2639 81.4245 67.5129 81.1014 67.8669 81.0544C68.2199 81.0074 68.5459 81.2575 68.5919 81.6115C68.6379 81.9635 68.3889 82.2915 68.0349 82.3365Z" fill="#06038D"/>
<path d="M84.909 69.3895C84.773 69.7195 84.394 69.8755 84.064 69.7395C83.735 69.6025 83.578 69.2255 83.714 68.8935C83.851 68.5655 84.229 68.4095 84.56 68.5435C84.889 68.6805 85.045 69.0595 84.909 69.3895Z" fill="#06038D"/>
<path d="M75.796 91.3895C75.66 91.7195 75.281 91.8755 74.952 91.7395C74.622 91.6045 74.465 91.2255 74.602 90.8935C74.737 90.5635 75.117 90.4094 75.446 90.5434C75.775 90.6804 75.933 91.0595 75.796 91.3895Z" fill="#06038D"/>
<path d="M90.508 85.2955C90.177 85.1585 90.021 84.7795 90.157 84.4495C90.294 84.1195 90.672 83.9635 91.002 84.1015C91.332 84.2365 91.488 84.6135 91.351 84.9435C91.216 85.2765 90.838 85.4305 90.508 85.2955Z" fill="#06038D"/>
<path d="M68.5069 76.1825C68.1769 76.0455 68.0218 75.6665 68.1568 75.3385C68.2938 75.0085 68.6728 74.8524 69.0018 74.9864C69.3318 75.1254 69.4869 75.5025 69.3519 75.8325C69.2149 76.1625 68.8369 76.3175 68.5069 76.1825Z" fill="#06038D"/>
<path d="M89.594 73.4074C89.311 73.6244 88.905 73.5695 88.688 73.2865C88.471 73.0055 88.524 72.5984 88.807 72.3824C89.091 72.1654 89.497 72.2184 89.714 72.5014C89.931 72.7844 89.878 73.1904 89.594 73.4074Z" fill="#06038D"/>
<path d="M70.703 87.9034C70.419 88.1204 70.0141 88.0675 69.7961 87.7845C69.5781 87.4995 69.6321 87.0945 69.915 86.8785C70.1991 86.6595 70.6051 86.7165 70.8211 86.9975C71.0401 87.2805 70.986 87.6864 70.703 87.9034Z" fill="#06038D"/>
<path d="M86.4909 89.9814C86.2729 89.6984 86.3259 89.2915 86.6109 89.0755C86.8929 88.8585 87.2989 88.9115 87.5159 89.1945C87.7339 89.4795 87.6809 89.8845 87.3969 90.1005C87.1139 90.3195 86.7079 90.2644 86.4909 89.9814Z" fill="#06038D"/>
<path d="M71.994 71.0885C71.777 70.8055 71.831 70.3995 72.114 70.1825C72.397 69.9655 72.804 70.0185 73.021 70.3035C73.238 70.5845 73.185 70.9915 72.902 71.2095C72.617 71.4265 72.211 71.3715 71.994 71.0885Z" fill="#06038D"/>
<path d="M75.796 68.8935C75.933 69.2235 75.776 69.6025 75.446 69.7395C75.117 69.8765 74.738 69.7195 74.601 69.3895C74.465 69.0595 74.622 68.6805 74.951 68.5435C75.281 68.4095 75.66 68.5655 75.796 68.8935Z" fill="#06038D"/>
<path d="M84.909 90.8935C85.045 91.2255 84.889 91.6045 84.559 91.7395C84.229 91.8765 83.851 91.7195 83.714 91.3895C83.578 91.0595 83.735 90.6804 84.064 90.5434C84.394 90.4094 84.772 90.5635 84.909 90.8935Z" fill="#06038D"/>
<path d="M91.002 76.1825C90.672 76.3175 90.295 76.1625 90.157 75.8325C90.021 75.5025 90.177 75.1254 90.508 74.9864C90.838 74.8514 91.216 75.0075 91.351 75.3385C91.489 75.6665 91.333 76.0455 91.002 76.1825Z" fill="#06038D"/>
<path d="M69.0019 85.2955C68.6719 85.4305 68.2939 85.2755 68.1569 84.9435C68.0209 84.6135 68.1779 84.2365 68.5069 84.1015C68.8369 83.9625 69.2149 84.1195 69.3509 84.4495C69.4889 84.7805 69.3319 85.1595 69.0019 85.2955Z" fill="#06038D"/>
<path d="M81.9508 68.4225C81.9038 68.7755 81.5788 69.0245 81.2248 68.9795C80.8718 68.9325 80.6218 68.6064 80.6678 68.2524C80.7148 67.8994 81.0398 67.6505 81.3928 67.6955C81.7478 67.7435 81.9968 68.0695 81.9508 68.4225Z" fill="#06038D"/>
<path d="M78.8419 92.0325C78.7959 92.3845 78.4699 92.6345 78.1159 92.5895C77.7629 92.5405 77.5129 92.2165 77.5599 91.8625C77.6069 91.5085 77.9309 91.2585 78.2849 91.3055C78.6399 91.3525 78.8879 91.6765 78.8419 92.0325Z" fill="#06038D"/>
<path d="M91.475 82.3365C91.122 82.2915 90.872 81.9635 90.919 81.6115C90.965 81.2575 91.29 81.0074 91.645 81.0544C91.998 81.0994 92.247 81.4235 92.202 81.7795C92.154 82.1355 91.829 82.3835 91.475 82.3365Z" fill="#06038D"/>
<path d="M67.8659 79.2295C67.5119 79.1825 67.2629 78.8565 67.3089 78.5045C67.3549 78.1495 67.6799 77.8995 68.0339 77.9455C68.3879 77.9925 68.6369 78.3185 68.5899 78.6725C68.5449 79.0245 68.2199 79.2765 67.8659 79.2295Z" fill="#06038D"/>
<path d="M87.516 71.0885C87.298 71.3715 86.893 71.4265 86.61 71.2095C86.326 70.9905 86.2729 70.5845 86.4909 70.3035C86.7079 70.0185 87.1139 69.9655 87.3969 70.1825C87.6799 70.3995 87.733 70.8055 87.516 71.0885Z" fill="#06038D"/>
<path d="M73.02 89.9814C72.802 90.2644 72.396 90.3195 72.113 90.1005C71.831 89.8835 71.776 89.4775 71.994 89.1945C72.212 88.9115 72.617 88.8585 72.901 89.0755C73.184 89.2915 73.237 89.6984 73.02 89.9814Z" fill="#06038D"/>
<path d="M88.807 87.9034C88.524 87.6864 88.471 87.2805 88.688 86.9975C88.905 86.7165 89.312 86.6595 89.594 86.8785C89.878 87.0955 89.93 87.4995 89.714 87.7845C89.497 88.0675 89.091 88.1204 88.807 87.9034Z" fill="#06038D"/>
<path d="M69.9149 73.4074C69.6319 73.1904 69.5789 72.7844 69.7959 72.5014C70.0129 72.2184 70.4189 72.1654 70.7019 72.3824C70.9859 72.5994 71.0389 73.0055 70.8209 73.2865C70.6049 73.5695 70.1989 73.6234 69.9149 73.4074Z" fill="#06038D"/>
</svg>
