<svg width="101" height="101" viewBox="0 0 101 101" fill="none" xmlns="http://www.w3.org/2000/svg">
<path d="M4.59225 37.2129C11.8146 11.9214 38.1724 -2.72646 63.4639 4.49583C88.7553 11.7182 103.403 38.076 96.1809 63.3674C88.9585 88.6588 62.6007 103.307 37.3093 96.0845C12.0179 88.8621 -2.63003 62.5043 4.59225 37.2129Z" stroke="#54BA4C" stroke-width="3.6"/>
<path d="M30.6875 59.0728C37.7025 74.7748 62.6205 74.5588 70.0665 59.0728" stroke="#54BA4C" stroke-width="3.6" stroke-miterlimit="22.9256" stroke-linecap="round" stroke-linejoin="round"/>
<path fill-rule="evenodd" clip-rule="evenodd" d="M34.1105 44.3846C37.6535 44.3846 40.5425 41.4946 40.5425 37.9516C40.5425 34.4086 37.6525 31.5186 34.1105 31.5186C30.5675 31.5186 27.6775 34.4086 27.6775 37.9516C27.6775 41.4946 30.5675 44.3846 34.1105 44.3846Z" fill="#54BA4C"/>
<path fill-rule="evenodd" clip-rule="evenodd" d="M66.6444 44.3846C70.1864 44.3846 73.0764 41.4946 73.0764 37.9516C73.0764 34.4086 70.1864 31.5186 66.6444 31.5186C63.1014 31.5186 60.2114 34.4086 60.2114 37.9516C60.2124 41.4946 63.1014 44.3846 66.6444 44.3846Z" fill="#54BA4C"/>
</svg>
