<svg width="160" height="160" viewBox="0 0 160 160" fill="none" xmlns="http://www.w3.org/2000/svg">
<path d="M144.362 119.039C144.362 122.348 141.683 125.031 138.374 125.031H21.6295C18.3195 125.031 15.6375 122.347 15.6375 119.039V40.961C15.6375 37.652 18.3205 34.969 21.6295 34.969H138.374C141.684 34.969 144.362 37.653 144.362 40.961V119.039Z" fill="#DA2128"/>
<path d="M58.9134 45.109L60.2054 49.086H64.3884L61.0034 51.544L62.2954 55.521L58.9134 53.064L55.5284 55.521L56.8214 51.544L53.4404 49.086H57.6214L58.9134 45.109Z" fill="#FFDE00"/>
<path d="M58.9134 70.22L60.2054 74.199H64.3884L61.0034 76.6559L62.2954 80.634L58.9134 78.175L55.5284 80.634L56.8214 76.6559L53.4404 74.199H57.6214L58.9134 70.22Z" fill="#FFDE00"/>
<path d="M70.5504 63.484L71.8434 67.461H76.0255L72.6435 69.919L73.9355 73.896L70.5504 71.439L67.1685 73.896L68.4604 69.919L65.0754 67.461H69.2574L70.5504 63.484Z" fill="#FFDE00"/>
<path d="M70.5504 50.621L71.8434 54.597H76.0255L72.6435 57.056L73.9355 61.035L70.5504 58.576L67.1685 61.035L68.4604 57.056L65.0754 54.597H69.2574L70.5504 50.621Z" fill="#FFDE00"/>
<path d="M38.0425 50.238L41.5925 61.16H53.0735L43.7856 67.912L47.3345 78.834L38.0425 72.083L28.7516 78.834L32.3005 67.912L23.0085 61.16H34.4935L38.0425 50.238Z" fill="#FFDE00"/>
</svg>
