<svg width="99" height="99" viewBox="0 0 99 99" fill="none" xmlns="http://www.w3.org/2000/svg">
<path d="M49.4219 1.7998C75.6497 1.7998 97.0449 23.195 97.0449 49.4229C97.0449 75.6497 75.6498 97.0449 49.4219 97.0449C23.196 97.0449 1.7998 75.6497 1.7998 49.4229C1.79987 23.195 23.1951 1.79987 49.4219 1.7998Z" stroke="#EC0000" stroke-width="3.6"/>
<path fill-rule="evenodd" clip-rule="evenodd" d="M33.156 43.5188C36.698 43.5188 39.588 40.6278 39.588 37.0858C39.588 33.5428 36.698 30.6528 33.156 30.6528C29.613 30.6528 26.723 33.5428 26.723 37.0858C26.723 40.6278 29.613 43.5188 33.156 43.5188Z" fill="#EC0000"/>
<path fill-rule="evenodd" clip-rule="evenodd" d="M65.6901 43.5188C69.2321 43.5188 72.1221 40.6278 72.1221 37.0858C72.1221 33.5428 69.2321 30.6528 65.6901 30.6528C62.1471 30.6528 59.2571 33.5428 59.2571 37.0858C59.2571 40.6278 62.1471 43.5188 65.6901 43.5188Z" fill="#EC0000"/>
<path d="M28.5202 66.981L70.3249 66.9813" stroke="#EC0000" stroke-width="3.6" stroke-miterlimit="22.9256" stroke-linecap="round" stroke-linejoin="round"/>
</svg>
