<svg width="100" height="100" viewBox="0 0 100 100" fill="none" xmlns="http://www.w3.org/2000/svg">
<path d="M39.1584 3.0856C64.7549 -2.95846 90.4048 12.8921 96.4489 38.4886C102.493 64.0852 86.6425 89.735 61.046 95.7791C35.4494 101.823 9.79949 85.9727 3.75543 60.3761C-2.28854 34.7796 13.562 9.12973 39.1584 3.0856Z" stroke="#FFBB4A" stroke-width="3.6"/>
<path d="M29.4365 66.2132C38.4675 53.2782 64.6635 53.2092 70.7685 66.2132" stroke="#FFBB4A" stroke-width="3.6" stroke-miterlimit="22.9256" stroke-linecap="round" stroke-linejoin="round"/>
<path fill-rule="evenodd" clip-rule="evenodd" d="M33.8356 43.5533C37.3786 43.5533 40.2686 40.6633 40.2686 37.1203C40.2686 33.5773 37.3786 30.6873 33.8356 30.6873C30.2936 30.6873 27.4036 33.5773 27.4036 37.1203C27.4036 40.6633 30.2936 43.5533 33.8356 43.5533Z" fill="#FFBB4A"/>
<path fill-rule="evenodd" clip-rule="evenodd" d="M66.3706 43.5533C69.9136 43.5533 72.8026 40.6633 72.8026 37.1203C72.8026 33.5773 69.9136 30.6873 66.3706 30.6873C62.8276 30.6873 59.9376 33.5773 59.9376 37.1203C59.9376 40.6633 62.8276 43.5533 66.3706 43.5533Z" fill="#FFBB4A"/>
</svg>
