<svg width="101" height="36" viewBox="0 0 101 36" fill="none" xmlns="http://www.w3.org/2000/svg">
<g clip-path="url(#clip0_21_1351)">
<path fill-rule="evenodd" clip-rule="evenodd" d="M39.288 11.13C38.8654 10.6868 38.6338 10.0954 38.643 9.48303C38.643 8.84603 38.86 8.29903 39.294 7.84203C39.728 7.38403 40.245 7.15503 40.845 7.15503C41.445 7.15503 41.96 7.38503 42.39 7.84203C42.82 8.29903 43.035 8.84603 43.035 9.48203C43.035 10.119 42.82 10.666 42.39 11.123C41.96 11.581 41.445 11.81 40.845 11.81C40.245 11.81 39.726 11.583 39.288 11.13ZM38.948 26.832V13.653H42.731V26.833L38.948 26.832ZM85.885 11.964C85.423 11.509 85.191 10.969 85.191 10.342C85.191 9.71503 85.425 9.17603 85.891 8.72603C86.1102 8.50768 86.3709 8.3354 86.6577 8.2193C86.9445 8.10321 87.2516 8.04566 87.561 8.05003C88.206 8.05003 88.761 8.27503 89.223 8.72603C89.685 9.17603 89.916 9.71603 89.916 10.342C89.916 10.969 89.686 11.507 89.223 11.958C89.0054 12.1766 88.746 12.3491 88.4603 12.4652C88.1746 12.5814 87.8684 12.6388 87.56 12.634C87.2505 12.638 86.9432 12.5808 86.6558 12.4659C86.3684 12.3509 86.1065 12.1804 85.885 11.964ZM85.519 27.431V14.45H89.589V27.43L85.519 27.431ZM94.599 26.426C93.832 25.61 93.448 24.318 93.448 22.55V17.772H91.3V14.45H93.447V11.076L97.517 10.393V14.45H101V17.772H97.518V22.125C97.518 22.829 97.63 23.375 97.852 23.76C98.075 24.147 98.474 24.34 99.05 24.34C99.617 24.34 100.267 24.164 101 23.812V27.006C100.686 27.212 100.252 27.383 99.698 27.521C99.1518 27.6574 98.591 27.7266 98.028 27.727C96.563 27.727 95.42 27.293 94.6 26.427L94.599 26.426ZM48.18 32.076V30.395C49.473 31.229 50.809 31.646 52.188 31.646C53.627 31.646 54.766 31.229 55.605 30.395C56.445 29.561 56.865 28.414 56.865 26.954V25.507L56.813 25.481C55.7 26.463 54.351 26.954 52.766 26.954C50.993 26.954 49.513 26.339 48.327 25.109C47.141 23.879 46.547 22.313 46.547 20.41C46.547 19.671 46.64 18.959 46.824 18.272C47.1797 16.9377 47.9378 15.7453 48.995 14.857C49.5379 14.4087 50.1585 14.0639 50.826 13.84C51.5582 13.5918 52.3269 13.4684 53.1 13.475C54.393 13.475 55.665 13.815 56.916 14.492L58.419 14.218V26.928C58.419 28.805 57.864 30.301 56.755 31.418C55.646 32.535 54.124 33.093 52.188 33.093C50.74 33.093 49.405 32.754 48.18 32.076ZM48.128 20.306C48.128 21.826 48.578 23.08 49.478 24.066C50.376 25.053 51.541 25.546 52.972 25.546C53.708 25.546 54.419 25.405 55.104 25.122C55.7662 24.855 56.3655 24.4531 56.864 23.942V16.03C55.734 15.283 54.47 14.91 53.074 14.91C51.593 14.91 50.398 15.424 49.49 16.454C48.582 17.484 48.128 18.768 48.128 20.306ZM72.792 20.788H62.244C62.372 22.326 62.935 23.548 63.934 24.451C64.931 25.355 66.201 25.807 67.742 25.807C69.284 25.807 70.732 25.298 72.085 24.281V25.989C71.485 26.371 70.792 26.673 70.004 26.895C69.235 27.1138 68.4395 27.2255 67.64 27.227C66.33 27.227 65.147 26.941 64.094 26.367C63.0543 25.8072 62.1944 24.9644 61.614 23.936C61.014 22.889 60.714 21.696 60.714 20.358C60.714 19.368 60.884 18.442 61.222 17.581C61.561 16.721 62.019 15.995 62.597 15.405C63.1801 14.8107 63.8742 14.3367 64.64 14.01C65.4204 13.6716 66.2624 13.4983 67.113 13.501C68.74 13.501 70.104 14.058 71.205 15.17C72.305 16.282 72.855 17.781 72.855 19.667C72.855 19.867 72.835 20.241 72.792 20.788ZM67.062 14.909C65.914 14.909 64.884 15.311 63.972 16.115C63.06 16.919 62.501 18.042 62.295 19.485H71.327C71.3199 18.8644 71.2159 18.2487 71.019 17.66C70.83 17.12 70.59 16.684 70.299 16.35C70.0104 16.0174 69.67 15.7334 69.291 15.509C68.9421 15.2962 68.5627 15.1377 68.166 15.039C67.8043 14.9531 67.4338 14.9094 67.062 14.909ZM76.873 26.106C76.257 25.386 75.948 24.164 75.948 22.443V15.183H73.366V13.788H75.948V10.112L77.503 9.83903V13.789H81.678V15.183H77.503V22.17C77.503 22.613 77.518 22.995 77.548 23.317C77.578 23.638 77.64 23.962 77.734 24.287C77.828 24.614 77.959 24.879 78.126 25.083C78.293 25.287 78.52 25.455 78.806 25.585C79.094 25.715 79.439 25.78 79.841 25.78C80.526 25.78 81.139 25.62 81.678 25.298V26.798C81.0373 27.0898 80.34 27.2367 79.636 27.228C78.428 27.228 77.507 26.854 76.873 26.106Z" fill="white"/>
<path d="M17.565 35.776C7.865 35.776 0 27.768 0 17.888C0 8.008 7.864 0 17.565 0C27.266 0 35.13 8.009 35.13 17.888C35.13 27.768 27.266 35.776 17.565 35.776ZM17.565 28.896C23.535 28.896 28.375 23.968 28.375 17.888C28.375 11.808 23.535 6.88 17.565 6.88C11.595 6.88 6.755 11.809 6.755 17.888C6.755 23.968 11.595 28.896 17.565 28.896Z" fill="white"/>
<g opacity="0.905">
<path d="M17.79 32.5659C9.95503 32.5659 3.60303 26.0969 3.60303 18.1179C3.60303 10.1379 9.95503 3.66895 17.79 3.66895C25.626 3.66895 31.978 10.1379 31.978 18.1179C31.978 26.0969 25.626 32.5659 17.79 32.5659ZM17.565 28.8959C23.535 28.8959 28.375 23.9679 28.375 17.8879C28.375 11.8079 23.535 6.87995 17.565 6.87995C11.595 6.87995 6.75503 11.8089 6.75503 17.8879C6.75503 23.9679 11.595 28.8959 17.565 28.8959Z" fill="url(#paint0_linear_21_1351)"/>
</g>
</g>
<defs>
<linearGradient id="paint0_linear_21_1351" x1="3.60303" y1="1448.52" x2="31.978" y2="1448.52" gradientUnits="userSpaceOnUse">
<stop stop-color="#FF0000"/>
<stop offset="1" stop-color="#00BAFF"/>
</linearGradient>
<clipPath id="clip0_21_1351">
<rect width="101" height="36" fill="white"/>
</clipPath>
</defs>
</svg>
